<svg width="58" height="58" viewBox="0 0 58 58" fill="none" xmlns="http://www.w3.org/2000/svg">
<path d="M50.7577 4.02576H6.32591C5.59478 4.02605 4.89368 4.31662 4.3767 4.83361C3.85971 5.35059 3.56914 6.05169 3.56885 6.78282V51.2146C3.56914 51.9457 3.85971 52.6468 4.3767 53.1638C4.89368 53.6808 5.59478 53.9714 6.32591 53.9717H28.5418V34.3501H22.5717V27.2149H28.5418V21.5291C28.5418 15.0785 33.0158 11.5667 38.7785 11.5667C41.5356 11.5667 44.5011 11.7741 45.1901 11.8655V18.6026H40.5991C37.4641 18.6026 36.8665 20.0854 36.8665 22.2705V27.2149H44.3361L43.3606 34.3501H36.8665V53.9717H50.7577C51.4888 53.9714 52.1899 53.6808 52.7069 53.1638C53.2239 52.6468 53.5145 51.9457 53.5148 51.2146V6.78282C53.5145 6.05169 53.2239 5.35059 52.7069 4.83361C52.1899 4.31662 51.4888 4.02605 50.7577 4.02576Z" fill="#F5F2F2"/>
</svg>
