<svg width="24" height="24" viewBox="0 0 24 24" fill="none" xmlns="http://www.w3.org/2000/svg">
<path d="M20.8205 1.50061H3.29437C2.33672 1.50061 1.5 2.18967 1.5 3.13608V20.7011C1.5 21.6526 2.33672 22.5006 3.29437 22.5006H20.8153C21.7781 22.5006 22.5 21.647 22.5 20.7011V3.13608C22.5056 2.18967 21.7781 1.50061 20.8205 1.50061ZM8.00953 19.0051H5.00109V9.65123H8.00953V19.0051ZM6.60937 8.22904H6.58781C5.625 8.22904 5.00156 7.51233 5.00156 6.61514C5.00156 5.70155 5.6414 5.0017 6.62578 5.0017C7.61015 5.0017 8.2125 5.69639 8.23406 6.61514C8.23359 7.51233 7.61015 8.22904 6.60937 8.22904ZM19.0045 19.0051H15.9961V13.8906C15.9961 12.6653 15.5583 11.8281 14.4698 11.8281C13.6383 11.8281 13.1461 12.3906 12.9272 12.9386C12.8451 13.1354 12.8231 13.4036 12.8231 13.6773V19.0051H9.81468V9.65123H12.8231V10.9529C13.2609 10.3295 13.9448 9.43232 15.5362 9.43232C17.5111 9.43232 19.005 10.734 19.005 13.5404L19.0045 19.0051Z" fill="#E62B1E"/>
</svg>
