<svg width="24" height="24" viewBox="0 0 24 24" fill="none" xmlns="http://www.w3.org/2000/svg">
<path d="M20.8205 1.50067H3.29437C2.33672 1.50067 1.5 2.18973 1.5 3.13614V20.7011C1.5 21.6527 2.33672 22.5007 3.29437 22.5007H20.8153C21.7781 22.5007 22.5 21.6471 22.5 20.7011V3.13614C22.5056 2.18973 21.7781 1.50067 20.8205 1.50067ZM8.00953 19.0052H5.00109V9.65129H8.00953V19.0052ZM6.60937 8.2291H6.58781C5.625 8.2291 5.00156 7.51239 5.00156 6.6152C5.00156 5.70161 5.6414 5.00176 6.62578 5.00176C7.61015 5.00176 8.2125 5.69645 8.23406 6.6152C8.23359 7.51239 7.61015 8.2291 6.60937 8.2291ZM19.0045 19.0052H15.9961V13.8907C15.9961 12.6654 15.5583 11.8282 14.4698 11.8282C13.6383 11.8282 13.1461 12.3907 12.9272 12.9386C12.8451 13.1355 12.8231 13.4036 12.8231 13.6774V19.0052H9.81468V9.65129H12.8231V10.953C13.2609 10.3296 13.9448 9.43239 15.5362 9.43239C17.5111 9.43239 19.005 10.7341 19.005 13.5405L19.0045 19.0052Z" fill="white"/>
</svg>
