<svg width="52" height="52" viewBox="0 0 52 52" fill="none" xmlns="http://www.w3.org/2000/svg">
<rect x="0.864746" y="0.837891" width="51.1351" height="51.1351" rx="4.75676" fill="#F5F2F2"/>
<path d="M44.8649 16.1122C43.5266 16.6937 42.1107 17.0768 40.6618 17.2494C42.1845 16.3577 43.3296 14.9413 43.8823 13.2656C42.4427 14.1074 40.8704 14.698 39.2326 15.0122C38.5429 14.2894 37.7135 13.7144 36.7947 13.3222C35.8759 12.9299 34.8869 12.7286 33.8879 12.7304C29.8432 12.7304 26.5699 15.9561 26.5699 19.9325C26.5671 20.4856 26.6305 21.037 26.7587 21.575C23.8584 21.4391 21.0183 20.6992 18.4203 19.4027C15.8222 18.1063 13.5234 16.2818 11.6709 14.046C11.021 15.1416 10.6773 16.3917 10.6757 17.6656C10.6757 20.1629 11.9786 22.3703 13.946 23.6635C12.7804 23.6359 11.6386 23.3274 10.6177 22.7642V22.8534C10.6177 26.3466 13.1447 29.2527 16.4893 29.9142C15.8604 30.0819 15.2123 30.1668 14.5614 30.1669C14.0995 30.1677 13.6387 30.1229 13.1856 30.0331C14.1154 32.8946 16.8216 34.9757 20.0272 35.0352C17.4224 37.0426 14.2244 38.1276 10.9358 38.1196C10.3521 38.1187 9.76891 38.084 9.18921 38.0156C12.5347 40.1518 16.4235 41.2818 20.3929 41.271C33.8723 41.271 41.2364 30.2933 41.2364 20.7723C41.2364 20.4602 41.2282 20.148 41.2133 19.8433C42.6426 18.8266 43.8792 17.5631 44.8649 16.1122Z" fill="black"/>
</svg>
